<?xml version="1.0" encoding="UTF-8"?>
<!DOCTYPE svg PUBLIC "-//W3C//DTD SVG 1.1//EN" "http://www.w3.org/Graphics/SVG/1.1/DTD/svg11.dtd">
<svg viewBox="0 0 1596 806" version="1.1" xmlns="http://www.w3.org/2000/svg">
  <defs>
    <filter id="orca-glossy-l-effect">
      <feSpecularLighting
        result="specOut"
        specularExponent="40"
        lighting-color="#595A5C">
        <fePointLight x="1250" y="330" z="700" /> <!-- fixme: lighting -->
      </feSpecularLighting>
      <feComposite
        in="SourceGraphic"
        in2="specOut"
        operator="arithmetic"
        k1="0"
        k2="1"
        k3="1"
        k4="0" />
        <feComposite
        in="comp"
        in2="SourceAlpha"
        operator="in" />
      </filter>
    <linearGradient id="orca-fin-gradient" x1="0" x2="0" y1="0" y2="1">
      <stop offset="0%" stop-color="#535456" />
      <stop offset="65%" stop-color="#A7A9AC" />
      <stop offset="100%" stop-color="#555658" />
    </linearGradient>
  </defs>
  <style>
    #orca-glossy-l {
      filter: url(#orca-glossy-l-effect);
    }
    #orca-glossy-r {
      fill: url(#orca-glossy-r-gradient);
    }
    #orca-fin-outline {
      fill: url(#orca-fin-gradient);
    }
  </style>

  <!-- background -->
  <path fill="#D1D2D4"
        d="M 0 806 L 68 542 H 295 L 288 569 H 364 L 329 701 H 345 C 376 525 537 567 562 578 L 564 569 H 674 C 726 574 926 514 751 445 S 335 402 319 395 C 409 361 514 331 673 338 C 534 308 341 338 103 359 C 282 294 428 241 686 244 C 607 226 514 227 425 234 C 654 128 945 165 1082 199 C 1083 141 1071 49 1019 0 C 1093 -2 1199 92 1234 212 C 1364 253 1532 282 1596 467 V 523 C 1588 551 1587 555 1566 576 L 1456 681 L 1511 806 H 1381 L 1372 784 L 1367 806 H 1210 L 1201 788 L 1197 806 H 1041 L 1039 775 H 1030 L 1012 806 H 696 L 691 792 L 688 806 H 503 V 803 L 490 806 H 411 C 403 804 393 800 385 795 L 382 806 Z" />

  <!-- text -->
  <!-- E -->
  <polygon fill="#213F9A"
           points="94,575 252,575 243,612 137,612 126,653 223,653 213,689 116,689 104,736 213,736 204,773 43,773" />
  <!-- L -->
  <polygon fill="black"
           points="276,602 321,602 286,735 366,735 356,773 232,773" />
  <!-- G -->
  <path fill="black"
        d="M 473 679 H 545 L 524 761 C 469 783 351 800 381 686 S 531 595 551 611 L 542 648 C 504 627 461 615 431 673 S 448 756 488 738 L 495 711 H 465 Z" />
  <!-- I -->
  <polygon fill="black"
           points="590,602 634,602 590,773 546,773" />
  <!-- N -->
  <polygon fill="black"
           points="664,602 710,602 742,707 769,602 812,602 767,773 721,773 689,667 662,773 620,773" />
  <!-- P -->
  <path fill="#662D91"
        d="M 846 581 C 965 553 998 583 1001 615 S 980 711 887 702 H 867 L 848 773 H 796 Z" />
  <path fill="#D1D2D4"
        d="M 891 610 L 877 663 C 890 661 942 674 949 635 S 902 608 891 610" />
  <!-- A -->
  <polygon fill="black"
           points="1049,602 1094,602 1113,773 1067,773 1065,741 1006,741 987,773 941,773" />
  <polygon fill="#D1D2D4"
           points="1059,651 1062,709 1025,709" />
  <!-- R -->
  <path fill="black"
        d="M 1168 607 C 1266 583 1298 609 1301 632 S 1293 693 1254 707 C 1262 731 1271 752 1282 773 H 1231 C 1221 755 1214 732 1209 712 H 1186 L 1170 773 H 1125 Z" />
  <path fill="#D1D2D4"
        d="M 1207 633 L 1195 678 C 1228 680 1256 680 1257 650 S 1215 631 1207 633" />
  <!-- K -->
  <polygon fill="black"
           points="1339,602 1384,602 1367,669 1440,602 1496,602 1415,672 1459,773 1404,773 1365,678 1340,773 1296,773" />

  <!-- orca splashes -->
  <!-- purple -->
  <path fill="#662D91"
        d="M 540 371 C 732 341 883 416 1002 473 S 1136 528 1206 548 C 1180 550 1058 542 984 524 C 864 443 732 385 540 371" />
  <!-- blue left -->
  <path fill="#213F9A"
        d="M 1263 554 C 1337 567 1442 564 1486 553 C 1355 553 1233 482 1129 427 C 1010 368 745 211 406 301 C 607 280 850 330 1022 422 C 1070 444 1117 465 1263 554" />
  <!-- blue right -->
  <path fill="#213F9A"
        d="M 1357 275 C 1458 294 1568 412 1542 497 C 1503 425 1506 371 1357 275" />

  <!-- orca -->
  <!-- black -->
  <path fill="black"
        d="M 607 202 C 766 169 955 191 1103 233 C 1133 217 1366 285 1491 456 C 1507 476 1514 493 1522 512 Q 1543 555 1475 532 C 1367 494 1297 466 1075 340 C 1006 301 937 264 859 239 C 790 214 700 207 607 202 M 1085 50 C 1129 73 1192 138 1216 255 C 1175 241 1138 234 1103 233 C 1124 160 1100 104 1085 50" />
  <!-- white part -->
  <path fill="white"
        d="M 1301 461 C 1298 443 1291 426 1285 408 Q 1283 396 1301 407 C 1345 431 1387 474 1428 516 C 1384 498 1342 482 1301 461" />
  <!-- fin outline -->
  <path id="orca-fin-outline"
        d="M 1086 50 C 1125 63 1198 145 1219 264 C 1208 282 1205 220 1190 188 C 1174 144 1132 76 1086 50" />
  <!-- glossy l -->
  <path id="orca-glossy-l"
        d="M 794 196 C 885 200 988 205 1099 239 C 1068 253 1021 262 980 257 C 918 236.6667 858 206 794 196 M 1220 264 C 1276 284 1418 357 1490 471 Q 1508 498 1447 480 C 1380 450 1361 419 1344 410 C 1262 353 1184 331 1103 293 C 1128 294 1150 285 1174 285 C 1192 293 1212 292 1229 288 C 1223 281 1217 274 1213 266" />
  <!-- glossy r -->
  <path id="orca-glossy-r"
        d="M 1221 264 C 1293 294 1421 362 1491 472 Q 1507 500 1441 477 C 1392 457 1364 422 1349 414 C 1295 369 1208 336 1084 296 C 1116 292 1149 285 1172 286 C 1192 288 1212 295 1230 287 C 1223 281 1218 276 1212 265" />

<!--    <rect fill='blue' width="1400" height="400" />-->
</svg>